<?xml version="1.0" standalone="no"?><!DOCTYPE svg PUBLIC "-//W3C//DTD SVG 1.1//EN" "http://www.w3.org/Graphics/SVG/1.1/DTD/svg11.dtd"><svg t="1613811932152" class="icon" viewBox="0 0 1024 1024" version="1.1" xmlns="http://www.w3.org/2000/svg" p-id="1281" xmlns:xlink="http://www.w3.org/1999/xlink" width="200" height="200"><defs><style type="text/css"></style></defs><path d="M654.51 706.05H280.86c-26.7 0-48.42-21.73-48.42-48.43V283.77c0-26.7 21.72-48.42 48.42-48.42h373.65c26.7 0 48.42 21.72 48.42 48.42v373.85c0 26.7-21.71 48.43-48.42 48.43zM280.86 276.86c-3.81 0-6.91 3.09-6.91 6.91v373.85c0 3.81 3.09 6.92 6.91 6.92h373.65c3.81 0 6.91-3.11 6.91-6.92V283.77c0-3.81-3.09-6.91-6.91-6.91H280.86z" fill="#1296db" p-id="1282"></path><path d="M743.13 788.65H369.49c-11.46 0-20.76-9.3-20.76-20.76s9.3-20.76 20.76-20.76h373.65c3.81 0 6.91-3.09 6.91-6.91V366.38c0-11.46 9.3-20.76 20.76-20.76s20.76 9.3 20.76 20.76v373.85c-0.02 26.7-21.73 48.42-48.44 48.42z" fill="#1296db" p-id="1283"></path></svg>