<?xml version="1.0" standalone="no"?><!DOCTYPE svg PUBLIC "-//W3C//DTD SVG 1.1//EN" "http://www.w3.org/Graphics/SVG/1.1/DTD/svg11.dtd"><svg t="1613812072430" class="icon" viewBox="0 0 1024 1024" version="1.1" xmlns="http://www.w3.org/2000/svg" p-id="1136" xmlns:xlink="http://www.w3.org/1999/xlink" width="200" height="200"><defs><style type="text/css"></style></defs><path d="M810.666667 96H213.333333A117.461333 117.461333 0 0 0 96 213.333333v597.333334c0 64.682667 52.629333 117.333333 117.333333 117.333333h597.333334c64.682667 0 117.333333-52.650667 117.333333-117.333333V213.333333c0-64.682667-52.650667-117.333333-117.333333-117.333333zM864 810.666667c0 29.418667-23.914667 53.333333-53.333333 53.333333H213.333333A53.397333 53.397333 0 0 1 160 810.666667V213.333333c0-29.418667 23.936-53.333333 53.333333-53.333333h597.333334c29.418667 0 53.333333 23.914667 53.333333 53.333333v597.333334z" fill="#1296db" p-id="1137"></path><path d="M448 245.333333h-170.666667c-4.138667 0-8.042667 0.853333-11.669333 2.282667l-0.490667 0.149333c-7.893333 3.242667-14.165333 9.536-17.429333 17.429334l-0.149333 0.490666A31.893333 31.893333 0 0 0 245.333333 277.333333v170.666667a32 32 0 1 0 64 0v-93.418667l105.365334 105.365334c6.250667 6.272 14.442667 9.386667 22.634666 9.386666s16.384-3.114667 22.634667-9.365333a32 32 0 0 0 0-45.248l-105.386667-105.386667H448a32 32 0 1 0 0-64zM746.666667 544a32 32 0 0 0-32 32v93.418667l-105.365334-105.365334a32 32 0 1 0-45.248 45.248l105.365334 105.365334H576a32 32 0 0 0 0 64h170.666667c4.117333 0 8.042667-0.853333 11.669333-2.261334l0.490667-0.149333c7.872-3.242667 14.165333-9.536 17.408-17.408l0.149333-0.490667c1.429333-3.648 2.282667-7.573333 2.282667-11.690666v-170.666667a32 32 0 0 0-32-32z" fill="#1296db" p-id="1138"></path></svg>