<?xml version="1.0"?>
<svg width="1024" height="1024" xmlns="http://www.w3.org/2000/svg" xmlns:svg="http://www.w3.org/2000/svg" class="icon" version="1.1">
 <g class="layer">
  <title>Layer 1</title>
  <path d="m91.43,736.43a18.29,17.11 0 0 1 -11.7,-30.46l201.14,-153.98a18.29,17.11 0 0 1 23.04,0l169.32,126.6l207.73,-227.21a18.29,17.11 0 0 1 25.6,-1.71l237.71,188.2a18.29,17.11 0 0 1 -23.4,26.01l-223.82,-177.25l-207.72,226.87a18.29,17.11 0 0 1 -25.24,2.05l-171.52,-128.32l-189.44,145.43a20.48,19.16 0 0 1 -11.7,3.76z" fill="#9cdafa" id="svg_1" transform="matrix(1 0 0 1 0 0)"/>
  <path d="m943.11,811l-862.22,0a18.75,14.34 0 0 1 -18.75,-14.34l0,-573.33a18.75,14.34 0 0 1 18.75,-14.34l862.22,0a18.75,14.34 0 0 1 18.75,14.34l0,573.33a18.75,14.34 0 0 1 -18.75,14.34zm-843.48,-28.67l824.75,0l0,-544.67l-824.75,0l0,544.67z" fill="#9cdafa" id="svg_2"/>
  <path d="m425.86,491.14a87.43,86.93 0 1 1 87.43,-86.93a87.43,86.93 0 0 1 -87.43,86.93zm0,-139.08a52.46,52.16 0 1 0 52.45,52.15a52.46,52.16 0 0 0 -52.45,-52.15z" fill="#9cdafa" id="svg_3"/>
  <line fill="none" id="svg_4" x1="36" x2="57" y1="520" y2="561"/>
 </g>
</svg>