<?xml version="1.0"?>
<svg width="1024" height="1024" xmlns="http://www.w3.org/2000/svg" xmlns:svg="http://www.w3.org/2000/svg" class="icon" version="1.1">
 <g class="layer">
  <title>Layer 1</title>
  <path d="m195.9,783.43a13.82,18.29 0 0 1 -8.84,-32.55l152.02,-164.57a13.82,18.29 0 0 1 17.41,0l127.97,135.31l157,-242.83a13.82,18.29 0 0 1 19.35,-1.83l179.66,201.14a13.82,18.29 0 0 1 -17.69,27.8l-169.16,-189.44l-157,242.47a13.82,18.29 0 0 1 -19.08,2.19l-129.64,-137.14l-143.18,155.43a15.48,20.48 0 0 1 -8.84,4.02z" fill="#9cdafa" id="svg_1" transform="matrix(1 0 0 1 0 0)"/>
  <path d="m168,937.61l0,-885.22a0,0 0 0 1 16.17,-19.25l646.66,0a0,0 0 0 1 16.17,19.25l0,885.22a0,0 0 0 1 -16.17,19.25l-646.66,0a0,0 0 0 1 -16.17,-19.25zm32.33,-865.98l0,846.75l614.34,0l0,-846.75l-614.34,0z" fill="#9cdafa" id="svg_2"/>
  <path d="m438.36,430.14a86.93,85.93 0 1 1 86.93,-85.93a86.93,85.93 0 0 1 -86.93,85.93zm0,-137.48a52.16,51.56 0 1 0 52.15,51.55a52.16,51.56 0 0 0 -52.15,-51.55z" fill="#9cdafa" id="svg_3" transform="matrix(1 0 0 1 0 0)"/>
 </g>
</svg>