<?xml version="1.0" standalone="no"?><!DOCTYPE svg PUBLIC "-//W3C//DTD SVG 1.1//EN" "http://www.w3.org/Graphics/SVG/1.1/DTD/svg11.dtd"><svg t="1711980320323" class="icon" viewBox="0 0 1024 1024" version="1.1" xmlns="http://www.w3.org/2000/svg" p-id="3187" xmlns:xlink="http://www.w3.org/1999/xlink" width="200" height="200"><path d="M252.928 561.92h-163.2a46.208 46.208 0 0 1-47.04-46.976c0-26.688 20.352-47.104 47.04-47.104h163.2c26.624 0 47.04 20.416 47.04 47.104a46.208 46.208 0 0 1-47.04 47.04zM938.56 561.92h-163.2a46.208 46.208 0 0 1-47.104-46.976c0-26.688 20.48-47.104 47.104-47.104h163.2c26.624 0 47.04 20.416 47.04 47.104a46.208 46.208 0 0 1-47.104 47.04zM213.696 861.632a45.12 45.12 0 0 1-32.96-14.08c-18.816-18.88-18.816-48.64 0-65.92L296.832 665.6c18.816-18.816 48.64-18.816 65.92 0 18.816 18.816 18.816 48.64 0 65.92l-116.096 116.096a42.752 42.752 0 0 1-32.96 14.08zM698.496 376.832a45.184 45.184 0 0 1-32.96-14.08c-18.816-18.88-18.816-48.64 0-65.92l128.64-128.64c18.816-18.816 48.64-18.816 65.92 0 18.816 18.816 18.816 48.64 0 65.92l-127.104 128.64a48.64 48.64 0 0 1-34.56 14.08zM514.944 299.968a46.208 46.208 0 0 1-47.104-47.04v-163.2c0-26.688 20.416-47.04 47.104-47.04 26.624 0 47.04 20.352 47.04 47.04v163.2a47.232 47.232 0 0 1-47.104 47.04zM514.944 985.6a46.208 46.208 0 0 1-47.104-47.104v-163.136c0-26.688 20.416-47.104 47.104-47.104 26.624 0 47.04 20.48 47.04 47.104v163.2a47.232 47.232 0 0 1-47.104 47.04zM814.592 861.632a45.12 45.12 0 0 1-32.96-14.08l-116.096-114.56c-18.816-18.816-18.816-48.64 0-65.92 18.816-18.816 48.64-18.816 65.92 0l116.096 116.16c18.816 18.816 18.816 48.64 0 65.92a50.624 50.624 0 0 1-32.96 12.48zM329.792 376.832a45.184 45.184 0 0 1-32.96-14.08L180.736 246.656c-18.816-18.88-18.816-48.64 0-65.92 18.816-18.816 48.64-18.816 65.92 0l116.096 116.096c18.816 18.816 18.816 48.64 0 65.92a45.184 45.184 0 0 1-32.96 14.08z" fill="#1196db" p-id="3188"></path></svg>