<?xml version="1.0" standalone="no"?><!DOCTYPE svg PUBLIC "-//W3C//DTD SVG 1.1//EN" "http://www.w3.org/Graphics/SVG/1.1/DTD/svg11.dtd"><svg t="1613813036526" class="icon" viewBox="0 0 1024 1024" version="1.1" xmlns="http://www.w3.org/2000/svg" p-id="2675" xmlns:xlink="http://www.w3.org/1999/xlink" width="200" height="200"><defs><style type="text/css"></style></defs><path d="M175.79019 623.975281c-61.737086 0-111.975281-50.242288-111.975281-111.974257 0-61.737086 50.238195-111.975281 111.975281-111.975281 61.730946 0 111.974257 50.238195 111.974257 111.975281C287.764448 573.732993 237.521137 623.975281 175.79019 623.975281L175.79019 623.975281zM511.708869 623.975281c-61.730946 0-111.975281-50.242288-111.975281-111.974257 0-61.737086 50.244334-111.975281 111.975281-111.975281 61.737086 0 111.975281 50.238195 111.975281 111.975281C623.683127 573.732993 573.445956 623.975281 511.708869 623.975281L511.708869 623.975281zM847.632665 623.975281c-61.737086 0-111.975281-50.242288-111.975281-111.974257 0-61.737086 50.238195-111.975281 111.975281-111.975281 61.730946 0 111.969141 50.238195 111.969141 111.975281C959.601806 573.732993 909.363611 623.975281 847.632665 623.975281L847.632665 623.975281zM847.632665 623.975281" p-id="2676" fill="#1296db"></path></svg>