<?xml version="1.0" standalone="no"?><!DOCTYPE svg PUBLIC "-//W3C//DTD SVG 1.1//EN" "http://www.w3.org/Graphics/SVG/1.1/DTD/svg11.dtd"><svg t="1712373536007" class="icon" viewBox="0 0 1024 1024" version="1.1" xmlns="http://www.w3.org/2000/svg" p-id="9704" xmlns:xlink="http://www.w3.org/1999/xlink" width="200" height="200"><path d="M187.100891 629.833143h146.578286L186.076891 777.508571a41.325714 41.325714 0 1 0 58.441143 58.441143l146.578286-146.578285v147.602285a40.96 40.96 0 0 0 40.448 40.96 41.910857 41.910857 0 0 0 42.057143-41.984v-246.491428a42.203429 42.203429 0 0 0-42.057143-42.057143H186.588891a40.96 40.96 0 0 0-40.96 40.521143 40.813714 40.813714 0 0 0 41.472 41.984zM592.458606 476.672h245.028571a40.96 40.96 0 0 0 40.96-40.521143 41.910857 41.910857 0 0 0-42.057143-41.984H689.811749L837.487177 246.491429a41.764571 41.764571 0 0 0 0-58.514286 41.764571 41.764571 0 0 0-58.368 0L632.467749 334.774857V187.099429a40.96 40.96 0 0 0-40.521143-40.96 41.910857 41.910857 0 0 0-42.057143 41.984v246.491428a43.008 43.008 0 0 0 42.569143 42.057143z m420.790857-391.606857a144.530286 144.530286 0 0 0-29.769143-44.617143A140.726857 140.726857 0 0 0 884.591177 0L139.411749 0.073143c-19.017143 0-36.937143 3.584-54.345143 10.752a142.262857 142.262857 0 0 0-44.032 29.769143 130.925714 130.925714 0 0 0-29.769143 44.617143A132.388571 132.388571 0 0 0 0.001463 139.337143v745.179428a140.726857 140.726857 0 0 0 40.521143 98.889143A140.726857 140.726857 0 0 0 139.411749 1024h745.179428a140.726857 140.726857 0 0 0 98.889143-40.521143A140.726857 140.726857 0 0 0 1024.001463 884.589714V139.410286c0-19.017143-3.584-36.937143-10.752-54.345143zM884.591177 942.08H139.411749a56.905143 56.905143 0 0 1-56.905143-57.417143V139.410286c0-31.817143 25.6-57.417143 56.905143-57.417143h745.179428c31.817143 0 57.417143 25.6 57.417143 57.417143v745.179428c0 31.817143-25.6 57.417143-57.417143 57.417143z" fill="#1296db" p-id="9705"></path></svg>